<?xml version="1.0" encoding="utf-8"?>
<!-- Generator: Adobe Illustrator 19.0.0, SVG Export Plug-In . SVG Version: 6.00 Build 0)  -->
<svg version="1.1" id="Слой_1" xmlns="http://www.w3.org/2000/svg" xmlns:xlink="http://www.w3.org/1999/xlink" x="0px" y="0px"
	 viewBox="4 -32 108 108" style="enable-background:new 4 -32 108 108;" xml:space="preserve">
<style type="text/css">
	.st0{opacity:0.9;fill:#2D2D2D;}
	.st1{fill:#FFFFFF;}
</style>
<g>
	<circle class="st0" cx="58" cy="22" r="54"/>
	<path class="st1" d="M85.6,13.9l-4.2-3.2c-0.9-0.9-1.3-1.3-2.7-1.4h-6.9c-1.3,0-2.3,1-2.3,2.3v2.3c0,1.5,1.1,2.3,2.3,2.3h11.5
		c5.9,0,10.9,5.7,11.5,11.5c0.2,1.4-2.1,1.4-2.3,0c-0.5-4.7-4.4-9.2-9.2-9.2H71.8c-2.6,0-4.6-2.1-4.6-4.6v-2.3
		c0-2.5,2.2-4.6,4.6-4.6h6.9c2,0,2.9,0.8,4.2,2.2l5,4.7C88.9,15,86.6,15,85.6,13.9z M33,21c4.4,0,7.9,3.6,7.9,8s-3.5,8-7.9,8
		c-4.4,0-7.9-3.6-7.9-8C25.1,24.6,28.6,21,33,21z M33,23.2c-3.2,0-5.8,2.6-5.8,5.8c0,3.2,2.6,5.8,5.8,5.8c3.2,0,5.8-2.6,5.8-5.8
		C38.8,25.8,36.2,23.2,33,23.2z M83.3,21c4.4,0,7.9,3.6,7.9,8s-3.5,8-7.9,8c-4.4,0-7.9-3.6-7.9-8C75.5,24.6,79,21,83.3,21z
		 M83.3,23.2c-3.2,0-5.8,2.6-5.8,5.8c0,3.2,2.6,5.8,5.8,5.8c3.2,0,5.8-2.6,5.8-5.8C89.1,25.8,86.5,23.2,83.3,23.2z M44.2,30.1h27.6
		c1.4,0,1.4,2.3,0,2.3H44.2C42.8,32.4,42.8,30.1,44.2,30.1z M44.2,13.9l6.5-4.7c1.3-1.3,3-2.1,5-2.2h4.6c2.4,0,4.6,2.1,4.6,4.6v2.3
		c0,2.5-2,4.6-4.6,4.6H32.7c-4.8,0-8.9,4.6-9.4,9.4c-0.2,1.4-2.3,1.2-2.1-0.2c0.6-5.8,5.6-11.4,11.5-11.4h27.6
		c1.2,0,2.3-0.8,2.3-2.3l0-2.4c0-1.3-1-2.2-2.3-2.2h-4.6c-1.4,0-2.6,0.4-3.5,1.4l-5.7,3.2C45.5,15,43.2,15,44.2,13.9z"/>
</g>
</svg>
